<?xml version="1.0" standalone="no"?><!DOCTYPE svg PUBLIC "-//W3C//DTD SVG 1.1//EN" "http://www.w3.org/Graphics/SVG/1.1/DTD/svg11.dtd"><svg t="1693221139243" class="icon" viewBox="0 0 1024 1024" version="1.1" xmlns="http://www.w3.org/2000/svg" p-id="4295" width="48" height="48" xmlns:xlink="http://www.w3.org/1999/xlink"><path d="M512 46.545455c257.070545 0 465.454545 208.372364 465.454545 465.454545 0 257.047273-208.384 465.454545-465.454545 465.454545S46.545455 769.047273 46.545455 512C46.545455 254.917818 254.929455 46.545455 512 46.545455z m261.794909 285.370181a40.727273 40.727273 0 0 0-57.6 0.023273l-273.640727 273.92-146.141091-145.943273-1.745455-1.652363a40.727273 40.727273 0 0 0-55.808 59.275636l174.952728 174.743273 1.745454 1.629091a40.727273 40.727273 0 0 0 55.854546-1.664L773.818182 389.515636l1.652363-1.745454a40.727273 40.727273 0 0 0-1.675636-55.854546zM938.042182 46.254545l26.717091 24.925091 36.258909 5.608728-24.448 27.461818-6.248727 35.677091-25.774546-27.112728-37.201454-3.584 24.436363-26.647272zM30.045091 93.090909l17.024 15.418182L69.818182 111.581091l-15.010909 17.338182L51.246545 151.272727l-16.407272-16.721454L11.636364 132.701091l15.010909-16.872727zM57.227636 884.363636l10.542546 9.192728L81.454545 895.418182l-8.901818 10.530909L70.365091 919.272727l-10.123636-10.123636L46.545455 908.078545l9.30909-10.123636zM1002.624 744.727273l-0.721455 19.84 10.461091 16.721454h-19.84L975.918545 791.272727l1.931637-20.084363L965.818182 754.827636h19.479273z" fill="#75D139" p-id="4296"></path></svg>